#N canvas 537 52 720 544 10;
#X obj 171 28 notein;
#X floatatom 172 102 5 0 0 0 - - -;
#X floatatom 393 166 5 0 0 0 - - -;
#X obj 186 440 sendOSC;
#X msg 11 345 connect 127.0.0.1 42414;
#X obj 12 319 loadbang;
#X obj 172 132 % 12;
#X floatatom 173 157 5 0 0 0 - - -;
#X obj 173 184 sel 0 2 4 5 7 9 11;
#X obj 315 132 / 12;
#X obj 317 156 int;
#X floatatom 326 249 5 0 0 0 - - -;
#X msg 172 212 0;
#X msg 190 238 1;
#X msg 204 211 2;
#X msg 222 237 3;
#X msg 234 209 4;
#X msg 252 235 5;
#X msg 264 209 6;
#X msg 288 236 7;
#X obj 179 315 pack 0 0 0;
#X floatatom 172 274 5 0 0 0 - - -;
#X msg 178 345 send /play \$1 \$2 \$3;
#X obj 127 409 print play;
#X obj 173 64 gate;
#X obj 393 139 / 127;
#X obj 317 180 expr -$f1+12;
#X obj 319 274 / 12;
#X obj 480 36 adc~;
#X floatatom 476 168 5 0 0 0 - - -;
#X obj 476 192 vsl 15 128 0 1 0 0 empty empty empty 0 -9 0 10 -262144
-1 -1 0 1;
#X obj 476 137 line;
#X msg 477 109 \$1 100;
#X obj 478 80 peakamp~ 30;
#X msg 477 339 send /amp \$1;
#X connect 0 0 24 1;
#X connect 0 1 24 0;
#X connect 0 1 25 0;
#X connect 1 0 6 0;
#X connect 1 0 9 0;
#X connect 2 0 20 2;
#X connect 4 0 3 0;
#X connect 5 0 4 0;
#X connect 6 0 7 0;
#X connect 7 0 8 0;
#X connect 8 0 12 0;
#X connect 8 1 13 0;
#X connect 8 2 14 0;
#X connect 8 3 15 0;
#X connect 8 4 16 0;
#X connect 8 5 17 0;
#X connect 8 6 18 0;
#X connect 8 7 19 0;
#X connect 9 0 10 0;
#X connect 10 0 26 0;
#X connect 11 0 27 0;
#X connect 12 0 21 0;
#X connect 13 0 21 0;
#X connect 14 0 21 0;
#X connect 15 0 21 0;
#X connect 16 0 21 0;
#X connect 17 0 21 0;
#X connect 18 0 21 0;
#X connect 19 0 21 0;
#X connect 20 0 22 0;
#X connect 21 0 20 0;
#X connect 22 0 3 0;
#X connect 22 0 23 0;
#X connect 24 0 1 0;
#X connect 25 0 2 0;
#X connect 26 0 11 0;
#X connect 27 0 20 1;
#X connect 28 0 33 0;
#X connect 28 1 33 0;
#X connect 29 0 30 0;
#X connect 30 0 34 0;
#X connect 31 0 29 0;
#X connect 32 0 31 0;
#X connect 33 0 32 0;
